<svg width="416" height="320" viewBox="0 0 416 320" fill="none" xmlns="http://www.w3.org/2000/svg">
<path d="M62.0645 45.7951C91.0427 7.80144 152.661 -5.52624 213.798 2.32778C267.912 9.2797 248.659 17.9993 338.411 32.4884C428.163 46.9775 434.354 254.277 382.032 304.184C329.71 354.091 160.268 261.522 104.727 304.184C49.1853 346.846 -34.932 247.033 17.3898 197.528C69.7115 148.024 25.8417 93.2871 62.0645 45.7951Z" fill="white"/>
<g clip-path="url(#clip0)">
<path d="M116.203 177.022C115.979 176.693 115.683 176.415 115.337 176.209C114.991 176.003 114.602 175.873 114.198 175.828C113.795 175.784 113.386 175.826 113.001 175.951C112.616 176.076 112.264 176.282 111.969 176.554L103.195 172.156L103.741 177.111L111.989 180.527C112.492 180.977 113.148 181.232 113.831 181.244C114.515 181.256 115.18 181.024 115.699 180.592C116.218 180.16 116.557 179.558 116.649 178.9C116.742 178.242 116.583 177.574 116.203 177.022H116.203Z" fill="#ECB5B5"/>
<path d="M108.405 179.016C108.246 179.087 108.074 179.124 107.899 179.126C107.725 179.128 107.552 179.094 107.391 179.027L99.0572 175.516C96.2076 174.316 93.9039 172.152 92.5745 169.426L88.1931 160.446C87.8697 160.042 87.6314 159.581 87.4918 159.088C87.3522 158.595 87.314 158.08 87.3794 157.573C87.4449 157.066 87.6126 156.576 87.8731 156.132C88.1335 155.688 88.4816 155.298 88.8974 154.984C89.3132 154.671 89.7886 154.44 90.2963 154.305C90.8041 154.17 91.3343 154.134 91.8565 154.198C92.3788 154.262 92.8829 154.425 93.34 154.679C93.7972 154.932 94.1984 155.271 94.5207 155.675L102.222 169.55L109.333 174.766C109.537 174.916 109.688 175.123 109.767 175.36C109.845 175.596 109.847 175.85 109.772 176.087L109.074 178.276C108.999 178.511 108.852 178.718 108.653 178.869C108.576 178.928 108.493 178.977 108.405 179.016Z" fill="#CCCCCC"/>
<path d="M88.0003 149.884C91.7483 149.884 94.7867 146.934 94.7867 143.294C94.7867 139.655 91.7483 136.704 88.0003 136.704C84.2522 136.704 81.2139 139.655 81.2139 143.294C81.2139 146.934 84.2522 149.884 88.0003 149.884Z" fill="#ECB5B5"/>
<path d="M90.7491 229.742L94.1364 229.741L95.7481 217.054L90.7483 217.054L90.7491 229.742Z" fill="#ECB5B5"/>
<path d="M100.67 232.795L90.0233 232.796L90.0231 228.802L96.5561 228.801C97.647 228.801 98.6933 229.222 99.4647 229.971C100.236 230.72 100.67 231.736 100.67 232.795L100.67 232.795Z" fill="#2F2E41"/>
<path d="M79.6968 229.742L83.0841 229.741L84.6958 217.054L79.696 217.054L79.6968 229.742Z" fill="#ECB5B5"/>
<path d="M89.6173 232.795L78.971 232.796L78.9708 228.802L85.5038 228.801C86.5947 228.801 87.641 229.222 88.4124 229.971C89.1838 230.72 89.6173 231.736 89.6173 232.795L89.6173 232.795Z" fill="#2F2E41"/>
<path d="M78.5139 226.11C78.3972 225.98 78.3103 225.828 78.259 225.664C78.2078 225.499 78.1934 225.326 78.2168 225.155L84.1477 181.962L98.8828 184.392L100.455 183.475L96.3888 224.458C96.355 224.734 96.2239 224.991 96.0177 225.185C95.8116 225.379 95.5429 225.497 95.257 225.521L90.7953 225.882C90.6179 225.896 90.4394 225.874 90.2718 225.815C90.1043 225.757 89.9516 225.664 89.8241 225.544C89.6966 225.423 89.5973 225.277 89.5329 225.116C89.4684 224.955 89.4404 224.782 89.4506 224.61L90.6058 205.093C90.6078 205.059 90.5971 205.027 90.5757 205.001C90.5544 204.975 90.5239 204.957 90.4901 204.952C90.4563 204.947 90.4217 204.954 90.393 204.972C90.3642 204.99 90.3434 205.018 90.3345 205.05L84.6196 225.629C84.5481 225.885 84.3919 226.111 84.1749 226.273C83.958 226.434 83.6924 226.522 83.4191 226.522H79.4494C79.2722 226.522 79.0971 226.485 78.9357 226.414C78.7744 226.343 78.6305 226.239 78.5139 226.11Z" fill="#2F2E41"/>
<path d="M88.7186 184.985C88.5495 184.836 88.332 184.75 88.1041 184.741C87.8761 184.731 87.652 184.8 87.4707 184.934L84.5248 187.16C84.3645 187.281 84.1759 187.362 83.9757 187.396C83.7754 187.431 83.5696 187.417 83.3763 187.355C83.1829 187.294 83.008 187.188 82.8668 187.046C82.7256 186.904 82.6225 186.73 82.5665 186.541C81.1215 181.626 77.8476 169.257 78.6541 160.551C79.1113 155.616 83.4998 151.865 88.4368 152.18C91.8121 152.399 94.0326 154.289 95.0367 157.8C97.5021 166.418 100.211 182.227 100.73 185.309C100.77 185.548 100.736 185.794 100.631 186.013C100.525 186.233 100.354 186.417 100.139 186.54C98.7454 187.353 97.1528 187.788 95.5271 187.801C93.56 187.801 91.2014 187.136 88.7186 184.985Z" fill="#CCCCCC"/>
<path d="M89.8302 188.051C89.8632 187.658 89.807 187.262 89.6656 186.893C89.5242 186.523 89.301 186.188 89.0118 185.911C88.7226 185.634 88.3744 185.422 87.9916 185.29C87.6089 185.157 87.201 185.108 86.7966 185.146L82.6874 176.428L79.9681 180.653L84.2872 188.284C84.3971 188.939 84.7508 189.533 85.2813 189.952C85.8117 190.371 86.4821 190.587 87.1653 190.558C87.8486 190.529 88.4972 190.258 88.9884 189.796C89.4795 189.334 89.779 188.713 89.8302 188.051Z" fill="#ECB5B5"/>
<path d="M82.4273 184.947C82.2574 184.908 82.098 184.834 81.9594 184.731C81.8208 184.628 81.7062 184.497 81.6229 184.348L77.2962 176.592C75.8165 173.94 75.3791 170.856 76.0654 167.915L78.3252 158.223C78.3272 157.712 78.433 157.206 78.6364 156.735C78.8398 156.263 79.137 155.835 79.5108 155.476C79.8846 155.116 80.3278 154.831 80.815 154.638C81.3022 154.444 81.8239 154.346 82.3502 154.348C82.8765 154.351 83.3972 154.454 83.8824 154.652C84.3677 154.85 84.808 155.139 85.1781 155.502C85.5483 155.866 85.8411 156.296 86.0398 156.77C86.2385 157.243 86.3392 157.75 86.3361 158.261L83.5781 173.794L85.8587 182.16C85.9235 182.4 85.9109 182.653 85.8225 182.886C85.7341 183.119 85.5742 183.32 85.3645 183.461L83.424 184.766C83.2158 184.906 82.9687 184.98 82.7156 184.98C82.6185 184.98 82.5217 184.969 82.4273 184.947Z" fill="#CCCCCC"/>
<path opacity="0.2" d="M85.7855 164.811L83.2988 175.007L86.8908 183.593L84.404 175.275L85.7855 164.811Z" fill="black"/>
<path d="M84.1276 148.713C83.5239 148.724 82.924 148.619 82.3625 148.403C82.1155 148.311 81.859 148.235 81.6125 148.142C79.4347 147.325 78.0001 145.073 77.9487 142.806C77.8973 140.54 79.1061 138.34 80.901 136.89C82.6959 135.441 85.0207 134.696 87.3486 134.524C89.8562 134.339 92.6798 134.956 94.0809 136.984C94.4539 137.524 94.7148 138.179 94.4938 138.83C94.4276 139.027 94.3093 139.203 94.1509 139.342C93.5252 139.882 92.9013 139.476 92.2634 139.44C91.3866 139.391 90.5991 140.08 90.3161 140.887C90.033 141.694 90.1576 142.583 90.3861 143.407C90.5603 143.902 90.67 144.417 90.7129 144.939C90.7313 145.2 90.6806 145.462 90.5656 145.7C90.4506 145.937 90.2751 146.142 90.0557 146.295C89.5078 146.617 88.7883 146.43 88.24 146.109C87.6918 145.788 87.2181 145.342 86.626 145.106C86.0338 144.869 85.2382 144.922 84.8936 145.446C84.784 145.636 84.7099 145.844 84.6746 146.06C84.3656 147.427 84.4366 147.346 84.1276 148.713L84.1276 148.713Z" fill="#2F2E41"/>
<path d="M285.006 103.057H117.287C116.648 103.058 116.036 103.304 115.584 103.743C115.132 104.181 114.878 104.776 114.878 105.397V215.756C114.878 216.377 115.132 216.971 115.584 217.41C116.036 217.849 116.648 218.095 117.287 218.096H285.006C285.354 218.096 285.698 218.023 286.015 217.881C286.331 217.739 286.612 217.532 286.838 217.275C286.857 217.255 286.874 217.233 286.89 217.211C287.034 217.04 287.151 216.849 287.236 216.644C287.357 216.363 287.419 216.061 287.418 215.756V147.057H286.73V215.756C286.73 216.083 286.631 216.402 286.445 216.674C286.28 216.913 286.056 217.109 285.793 217.243C285.55 217.365 285.28 217.428 285.006 217.428H117.287C116.831 217.427 116.393 217.251 116.07 216.938C115.748 216.624 115.566 216.2 115.566 215.756V105.397C115.566 104.953 115.748 104.529 116.07 104.215C116.393 103.902 116.831 103.726 117.287 103.725H285.006C285.463 103.725 285.901 103.901 286.224 104.214C286.547 104.528 286.729 104.953 286.73 105.397V120.226H287.418V105.397C287.417 104.776 287.163 104.181 286.711 103.742C286.258 103.303 285.645 103.057 285.006 103.057Z" fill="#3F3D56"/>
<path d="M287.072 112.435H115.221V113.104H287.072V112.435Z" fill="#3F3D56"/>
<path d="M121.075 110.081C122.216 110.081 123.142 109.182 123.142 108.074C123.142 106.966 122.216 106.068 121.075 106.068C119.934 106.068 119.009 106.966 119.009 108.074C119.009 109.182 119.934 110.081 121.075 110.081Z" fill="#CCCCCC"/>
<path d="M127.016 110.081C128.157 110.081 129.082 109.182 129.082 108.074C129.082 106.966 128.157 106.068 127.016 106.068C125.875 106.068 124.95 106.966 124.95 108.074C124.95 109.182 125.875 110.081 127.016 110.081Z" fill="#CCCCCC"/>
<path d="M132.957 110.081C134.098 110.081 135.023 109.182 135.023 108.074C135.023 106.966 134.098 106.068 132.957 106.068C131.816 106.068 130.89 106.966 130.89 108.074C130.89 109.182 131.816 110.081 132.957 110.081Z" fill="#CCCCCC"/>
<path d="M174.461 204.569C173.75 204.566 173.051 204.391 172.427 204.059C171.803 203.727 171.274 203.249 170.888 202.669C170.502 202.089 170.272 201.424 170.217 200.736C170.162 200.047 170.285 199.356 170.575 198.725L175.497 188.06C171.62 184.73 168.518 180.637 166.396 176.053C164.274 171.468 163.181 166.498 163.19 161.472C163.19 141.836 179.642 125.86 199.864 125.86C220.086 125.86 236.537 141.836 236.537 161.472C236.537 181.108 220.086 197.083 199.864 197.083C196.326 197.08 192.808 196.577 189.42 195.589L176.856 203.849C176.15 204.316 175.316 204.567 174.461 204.569ZM199.864 130.829C193.319 130.826 186.935 132.799 181.598 136.476C176.26 140.153 172.232 145.352 170.073 151.351C167.914 157.351 167.731 163.854 169.548 169.959C171.366 176.064 175.094 181.469 180.217 185.424L181.767 186.625L176.471 198.101L188.626 190.111L189.826 190.502C194.162 191.917 198.762 192.399 203.309 191.915C207.855 191.431 212.239 189.993 216.157 187.701C220.074 185.408 223.431 182.316 225.996 178.638C228.56 174.96 230.27 170.785 231.007 166.402C231.745 162.018 231.492 157.532 230.266 153.253C229.04 148.974 226.871 145.005 223.908 141.621C220.946 138.237 217.261 135.52 213.109 133.656C208.957 131.793 204.438 130.828 199.864 130.829Z" fill="#3F3D56"/>
<path d="M199.864 164.784C202.69 164.784 204.981 162.56 204.981 159.815C204.981 157.071 202.69 154.846 199.864 154.846C197.038 154.846 194.747 157.071 194.747 159.815C194.747 162.56 197.038 164.784 199.864 164.784Z" fill="#3F3D56"/>
<path d="M185.365 164.784C188.191 164.784 190.482 162.56 190.482 159.815C190.482 157.071 188.191 154.846 185.365 154.846C182.539 154.846 180.248 157.071 180.248 159.815C180.248 162.56 182.539 164.784 185.365 164.784Z" fill="#3F3D56"/>
<path d="M214.363 164.784C217.189 164.784 219.48 162.56 219.48 159.815C219.48 157.071 217.189 154.846 214.363 154.846C211.536 154.846 209.245 157.071 209.245 159.815C209.245 162.56 211.536 164.784 214.363 164.784Z" fill="#3F3D56"/>
<path d="M328.546 140.148H279.916C279.33 140.148 278.767 139.922 278.353 139.519C277.938 139.117 277.705 138.571 277.705 138.002C277.705 137.432 277.938 136.886 278.353 136.484C278.767 136.081 279.33 135.855 279.916 135.855H328.546C329.132 135.855 329.694 136.081 330.109 136.484C330.524 136.886 330.756 137.432 330.756 138.002C330.756 138.571 330.524 139.117 330.109 139.519C329.694 139.922 329.132 140.148 328.546 140.148Z" fill="#CCCCCC"/>
<path d="M296.771 131.026H279.916C279.33 131.026 278.767 130.8 278.353 130.397C277.938 129.995 277.705 129.449 277.705 128.879C277.705 128.31 277.938 127.764 278.353 127.362C278.767 126.959 279.33 126.733 279.916 126.733H296.771C297.357 126.733 297.919 126.959 298.334 127.362C298.748 127.764 298.981 128.31 298.981 128.879C298.981 129.449 298.748 129.995 298.334 130.397C297.919 130.8 297.357 131.026 296.771 131.026Z" fill="#CCCCCC"/>
<path d="M257.89 142.764C263.078 142.764 267.284 138.679 267.284 133.641C267.284 128.603 263.078 124.519 257.89 124.519C252.701 124.519 248.495 128.603 248.495 133.641C248.495 138.679 252.701 142.764 257.89 142.764Z" fill="#03C1CF"/>
<path d="M333.421 119.689H245.831C244.586 119.691 243.392 120.172 242.511 121.027C241.631 121.882 241.135 123.041 241.134 124.251V143.032C241.135 144.241 241.631 145.4 242.511 146.255C243.392 147.11 244.586 147.591 245.831 147.593H333.421C334.666 147.591 335.86 147.11 336.74 146.255C337.621 145.4 338.116 144.241 338.118 143.032V124.251C338.116 123.041 337.621 121.882 336.74 121.027C335.86 120.172 334.666 119.691 333.421 119.689ZM337.565 143.032C337.564 144.099 337.127 145.122 336.35 145.876C335.573 146.631 334.519 147.055 333.421 147.057H245.831C244.732 147.055 243.679 146.631 242.902 145.876C242.125 145.122 241.688 144.099 241.686 143.032V124.251C241.688 123.184 242.125 122.161 242.902 121.406C243.679 120.652 244.732 120.227 245.831 120.226H333.421C334.519 120.227 335.573 120.652 336.35 121.406C337.127 122.161 337.564 123.184 337.565 124.251V143.032Z" fill="#3F3D56"/>
<path d="M337.565 127.202C341.075 127.202 343.92 124.439 343.92 121.031C343.92 117.623 341.075 114.86 337.565 114.86C334.055 114.86 331.21 117.623 331.21 121.031C331.21 124.439 334.055 127.202 337.565 127.202Z" fill="#03C1CF"/>
<path d="M337.37 124.501C337.344 124.476 337.324 124.447 337.31 124.414C337.296 124.382 337.289 124.347 337.289 124.312V117.482C337.289 117.411 337.318 117.342 337.37 117.292C337.422 117.242 337.492 117.213 337.565 117.213C337.638 117.213 337.709 117.242 337.76 117.292C337.812 117.342 337.841 117.411 337.841 117.482V124.312C337.841 124.365 337.825 124.417 337.795 124.461C337.764 124.505 337.721 124.539 337.671 124.559C337.62 124.58 337.565 124.585 337.511 124.575C337.458 124.564 337.408 124.539 337.37 124.501Z" fill="white"/>
<path d="M333.853 121.086C333.814 121.049 333.788 121.001 333.777 120.949C333.767 120.897 333.772 120.843 333.793 120.794C333.814 120.745 333.849 120.703 333.895 120.674C333.94 120.644 333.994 120.628 334.048 120.628H341.082C341.155 120.628 341.225 120.657 341.277 120.707C341.329 120.757 341.358 120.826 341.358 120.897C341.358 120.968 341.329 121.036 341.277 121.086C341.225 121.137 341.155 121.165 341.082 121.165H334.048C334.012 121.165 333.976 121.158 333.943 121.145C333.909 121.131 333.879 121.111 333.853 121.086Z" fill="white"/>
<path d="M345.173 203.054H331.907C331.907 203.424 318.236 203.725 318.236 203.725C318.021 203.881 317.825 204.061 317.653 204.261C317.133 204.863 316.85 205.623 316.851 206.408V206.944C316.852 207.834 317.216 208.686 317.863 209.315C318.511 209.944 319.389 210.298 320.305 210.298H345.173C346.089 210.297 346.967 209.944 347.614 209.315C348.262 208.686 348.626 207.833 348.627 206.944V206.408C348.625 205.518 348.261 204.666 347.614 204.037C346.966 203.409 346.088 203.055 345.173 203.054Z" fill="#3F3D56"/>
<path d="M334.672 210.165H331.08V232.703H334.672V210.165Z" fill="#3F3D56"/>
<path d="M344.895 232.58C344.895 232.957 339.452 232.726 332.738 232.726C326.023 232.726 320.58 232.957 320.58 232.58C320.58 232.203 326.023 229.215 332.738 229.215C339.452 229.215 344.895 232.203 344.895 232.58Z" fill="#3F3D56"/>
<path d="M334.028 172.851C338.301 172.851 341.765 169.488 341.765 165.339C341.765 161.189 338.301 157.826 334.028 157.826C329.755 157.826 326.292 161.189 326.292 165.339C326.292 169.488 329.755 172.851 334.028 172.851Z" fill="#2F2E41"/>
<path d="M314.775 229.616L311.388 229.615L309.776 216.928L314.776 216.928L314.775 229.616Z" fill="#FFB8B8"/>
<path d="M308.968 228.676H315.501V232.67H304.854C304.854 231.611 305.288 230.595 306.059 229.845C306.831 229.096 307.877 228.676 308.968 228.676Z" fill="#2F2E41"/>
<path d="M309.487 227.78L306.255 226.795L308.629 214.221L313.399 215.674L309.487 227.78Z" fill="#FFB8B8"/>
<path d="M304.236 225.195L310.47 227.094L309.238 230.905L299.08 227.81C299.407 226.799 300.133 225.956 301.1 225.465C302.067 224.975 303.195 224.877 304.236 225.195Z" fill="#2F2E41"/>
<path d="M336.101 200.854C336.022 200.215 335.882 199.584 335.681 198.971L335.048 198.198L333.401 196.191L333.329 196.194C333.208 196.199 332.702 196.226 331.92 196.285H331.912C331.428 196.323 330.837 196.371 330.166 196.433C329.989 196.452 329.804 196.468 329.613 196.486V199.288H333.067C333.235 199.288 333.397 199.347 333.523 199.455C333.649 199.562 333.73 199.711 333.752 199.872C333.755 199.902 333.758 199.929 333.758 199.958C333.758 200.136 333.685 200.307 333.555 200.433C333.426 200.558 333.25 200.629 333.067 200.629H313.007C312.751 200.794 312.506 200.973 312.272 201.166C311.565 201.697 311.056 202.437 310.821 203.275C309.65 208.276 307.514 217.602 306.884 220.342C306.838 220.548 306.849 220.762 306.914 220.964C306.979 221.165 307.097 221.346 307.257 221.49C307.374 221.596 307.512 221.679 307.663 221.734L310.155 222.641C310.258 222.678 310.365 222.702 310.473 222.713C310.487 222.713 310.498 222.716 310.512 222.716C310.538 222.718 310.563 222.719 310.589 222.719C310.841 222.718 311.087 222.643 311.295 222.504C311.502 222.365 311.662 222.169 311.752 221.941L313.72 216.929L316.751 209.201L317.95 206.145C319.34 206.462 331 208.968 334.904 204.93C335.289 204.532 335.593 204.067 335.8 203.559C336.128 202.695 336.232 201.766 336.101 200.854Z" fill="#2F2E41"/>
<path d="M339.483 201.584C339.422 201.345 339.353 201.099 339.273 200.849L336.993 198.069L336.921 198.072C336.778 198.08 336.095 198.115 335.048 198.198C333.86 198.295 332.199 198.45 330.334 198.695C330.279 198.7 330.221 198.708 330.166 198.716C329.983 198.74 329.798 198.764 329.613 198.791V199.288H333.067C333.235 199.288 333.397 199.347 333.523 199.455C333.649 199.562 333.73 199.711 333.752 199.872C333.755 199.902 333.758 199.929 333.758 199.958C333.758 200.136 333.685 200.307 333.555 200.433C333.426 200.558 333.25 200.629 333.067 200.629H320.859C320.326 200.798 319.812 200.975 319.32 201.166C316.74 202.158 314.808 203.46 314.413 205.153C314.281 205.722 314.134 206.347 313.979 207.012C313.405 209.486 312.706 212.515 312.073 215.268V215.271C311.943 215.839 311.813 216.392 311.689 216.929C311.161 219.236 310.714 221.192 310.476 222.22C310.47 222.249 310.465 222.276 310.459 222.305V222.311C310.432 222.519 310.458 222.73 310.537 222.925L310.539 222.928V222.931C310.615 223.118 310.739 223.283 310.899 223.411C311.005 223.496 311.126 223.564 311.255 223.612L313.747 224.519C313.886 224.569 314.033 224.596 314.181 224.597C314.389 224.597 314.593 224.547 314.775 224.449C315.036 224.312 315.238 224.088 315.344 223.819L320.71 210.146L321.542 208.024C322.932 208.34 334.592 210.843 338.496 206.808C339.268 205.997 339.708 204.941 339.734 203.838C339.761 203.079 339.677 202.32 339.483 201.584Z" fill="#2F2E41"/>
<path d="M339.176 177.914C339.132 177.863 339.085 177.812 339.035 177.764C338.299 177.013 337.39 176.441 336.383 176.097C335.376 175.752 334.299 175.644 333.241 175.781C332.318 175.899 331.403 176.074 330.503 176.304C329.34 176.595 328.275 177.175 327.414 177.987C326.743 178.618 326.214 179.379 325.862 180.219C325.509 181.06 325.34 181.963 325.366 182.87C325.377 183.237 325.38 183.613 325.374 183.994C325.374 184.171 325.372 184.351 325.369 184.531H328.093C328.211 184.53 328.329 184.544 328.444 184.571C328.777 184.648 329.073 184.832 329.285 185.092C329.497 185.352 329.612 185.674 329.613 186.006V198.488C329.798 198.539 329.983 198.59 330.166 198.644C330.224 198.662 330.279 198.678 330.334 198.695C330.398 198.713 330.461 198.732 330.522 198.751C331.083 198.92 331.631 199.099 332.166 199.287H333.067C333.235 199.288 333.397 199.347 333.523 199.455C333.649 199.562 333.73 199.711 333.752 199.872C333.94 199.945 334.122 200.017 334.302 200.09C334.94 200.347 335.545 200.605 336.101 200.854C336.849 201.187 337.515 201.504 338.074 201.78C338.249 201.867 338.443 201.913 338.64 201.914C338.899 201.913 339.15 201.833 339.358 201.683C339.402 201.652 339.443 201.619 339.483 201.584C339.63 201.45 339.742 201.282 339.808 201.096C339.874 200.91 339.892 200.711 339.861 200.516C339.576 198.409 339.493 196.28 339.613 194.157C339.69 192.373 339.856 190.543 340.071 188.775C340.187 187.817 340.317 186.878 340.453 185.974C340.582 185.11 340.721 184.281 340.856 183.498C341.034 182.504 340.974 181.484 340.683 180.517C340.392 179.549 339.876 178.659 339.176 177.914Z" fill="#03C1CF"/>
<path d="M327.85 178.134C327.708 178.075 327.562 178.026 327.414 177.987C326.677 177.794 325.894 177.865 325.207 178.187C324.52 178.509 323.976 179.059 323.672 179.739L321.774 183.994L321.536 184.531H328.093C328.212 184.53 328.329 184.544 328.444 184.571L328.665 184.075L329.505 182.191C329.839 181.44 329.852 180.591 329.542 179.83C329.231 179.07 328.623 178.46 327.85 178.134Z" fill="#03C1CF"/>
<path d="M333.745 173.686C337.493 173.686 340.532 170.736 340.532 167.096C340.532 163.457 337.493 160.506 333.745 160.506C329.997 160.506 326.959 163.457 326.959 167.096C326.959 170.736 329.997 173.686 333.745 173.686Z" fill="#FFB8B8"/>
<path d="M326.837 163.859C330.051 165.764 333.675 166.923 337.427 167.247L336.31 165.948C337.123 166.24 337.978 166.405 338.844 166.437C339.709 166.424 340.615 166.1 341.106 165.409C341.325 165.065 341.455 164.675 341.485 164.271C341.515 163.868 341.445 163.464 341.279 163.093C340.939 162.353 340.409 161.711 339.741 161.226C338.556 160.316 337.158 159.704 335.671 159.446C334.184 159.188 332.654 159.291 331.218 159.747C330.233 160.033 329.351 160.582 328.673 161.332C328.03 162.103 326.791 162.79 327.12 163.729L326.837 163.859Z" fill="#2F2E41"/>
<path d="M334.886 158.54C332.746 156.433 330.156 154.806 327.298 153.776C325.464 153.116 323.467 152.708 321.55 153.083C319.632 153.457 317.818 154.746 317.283 156.573C316.846 158.067 317.298 159.675 317.976 161.082C318.655 162.488 319.562 163.792 320.111 165.251C320.671 166.74 320.84 168.341 320.601 169.909C320.362 171.476 319.724 172.962 318.745 174.229C317.765 175.497 316.475 176.507 314.992 177.168C313.508 177.828 311.878 178.119 310.25 178.013C312.134 178.258 313.871 179.118 315.713 179.575C317.554 180.033 319.728 180.002 321.097 178.721C322.545 177.365 322.574 175.161 322.504 173.209C322.4 170.307 322.296 167.406 322.192 164.504C322.138 163.024 322.093 161.497 322.643 160.116C323.192 158.734 324.498 157.525 326.023 157.537C327.179 157.547 328.202 158.227 329.129 158.897C330.055 159.568 331.036 160.283 332.188 160.383C333.339 160.482 334.653 159.655 334.567 158.536L334.886 158.54Z" fill="#2F2E41"/>
<path d="M340.453 185.974L336.579 186.076L336.297 188.719L336.233 189.331L330.166 191.976L329.613 192.218V196.921L330.166 196.768L331.912 196.285H331.92L339.612 194.158L339.701 194.133C340.322 193.959 340.87 193.595 341.261 193.094C341.652 192.594 341.867 191.985 341.873 191.356L341.892 188.236L341.909 185.937L340.453 185.974Z" fill="#FFB8B8"/>
<path d="M341.713 180.748C341.661 179.931 341.277 179.167 340.646 178.625C340.014 178.083 339.187 177.806 338.346 177.857C337.504 177.907 336.718 178.279 336.16 178.892C335.602 179.506 335.317 180.309 335.369 181.126L335.791 187.823C335.803 187.999 335.854 188.171 335.941 188.326C336.029 188.48 336.15 188.615 336.297 188.719C336.53 188.888 336.818 188.971 337.109 188.952L340.071 188.775L340.969 188.722C341.133 188.714 341.293 188.674 341.44 188.604C341.587 188.535 341.719 188.437 341.826 188.316C341.85 188.291 341.872 188.264 341.892 188.236C342.068 188.008 342.154 187.726 342.135 187.442L341.713 180.748Z" fill="#03C1CF"/>
<path d="M330.522 198.751H330.166V198.716C329.983 198.74 329.798 198.764 329.613 198.791V199.287H332.166C331.63 199.1 331.082 198.921 330.522 198.751ZM330.522 198.751H330.166V198.716C329.983 198.74 329.798 198.764 329.613 198.791V199.287H332.166C331.63 199.1 331.082 198.921 330.522 198.751ZM333.067 198.751H330.166V186.006C330.165 185.57 330.018 185.146 329.747 184.797C329.477 184.449 329.097 184.195 328.665 184.075C328.48 184.02 328.287 183.993 328.093 183.994H303.502C302.952 183.995 302.426 184.207 302.037 184.584C301.649 184.961 301.43 185.473 301.43 186.006V199.153C301.43 199.687 301.648 200.199 302.037 200.576C302.425 200.953 302.952 201.165 303.502 201.166H333.067C333.373 201.165 333.668 201.055 333.896 200.857C334.124 200.658 334.268 200.385 334.302 200.09C334.307 200.046 334.31 200.002 334.31 199.958C334.31 199.638 334.179 199.331 333.945 199.105C333.712 198.879 333.396 198.751 333.067 198.751ZM333.758 199.958C333.757 200.136 333.685 200.307 333.555 200.432C333.426 200.558 333.25 200.629 333.067 200.629H303.502C303.099 200.629 302.713 200.473 302.428 200.197C302.143 199.92 301.982 199.545 301.982 199.153V186.006C301.982 185.615 302.143 185.24 302.428 184.963C302.713 184.686 303.099 184.531 303.502 184.531H328.093C328.211 184.53 328.329 184.544 328.444 184.571C328.777 184.648 329.073 184.832 329.285 185.092C329.497 185.352 329.612 185.674 329.613 186.006V199.287H333.067C333.235 199.288 333.397 199.347 333.523 199.455C333.649 199.562 333.73 199.711 333.752 199.872C333.755 199.902 333.758 199.929 333.758 199.958ZM330.522 198.751H330.166V198.716C329.983 198.74 329.798 198.764 329.613 198.791V199.287H332.166C331.63 199.1 331.082 198.921 330.522 198.751Z" fill="#3F3D56"/>
<path d="M315.797 194.19C316.712 194.19 317.455 193.469 317.455 192.58C317.455 191.691 316.712 190.97 315.797 190.97C314.881 190.97 314.139 191.691 314.139 192.58C314.139 193.469 314.881 194.19 315.797 194.19Z" fill="#03C1CF"/>
<path d="M167.719 60.3662C167.713 60.4888 167.716 60.6117 167.73 60.7337L159.053 67.8046L156.466 66.8949L154.542 70.5073L160.199 73.1221L169.684 62.7859C170.163 62.8703 170.657 62.8111 171.101 62.6161C171.544 62.4212 171.916 62.0998 172.167 61.6946C172.418 61.2895 172.536 60.8198 172.505 60.348C172.474 59.8763 172.296 59.4248 171.994 59.0537C171.693 58.6826 171.282 58.4094 170.817 58.2704C170.352 58.1315 169.854 58.1334 169.39 58.2758C168.926 58.4183 168.517 58.6946 168.219 59.0681C167.92 59.4415 167.746 59.8943 167.719 60.3662L167.719 60.3662Z" fill="#FFB8B8"/>
<path d="M156.082 72.2401L147.703 69.3034C146.934 69.0338 146.307 68.4785 145.959 67.7597C145.611 67.0409 145.572 66.2174 145.85 65.4705C146.127 64.7236 146.699 64.1143 147.44 63.7768C148.18 63.4393 149.028 63.4011 149.797 63.6707L158.176 66.6074C158.303 66.6519 158.419 66.7202 158.519 66.8085C158.619 66.8968 158.7 67.0033 158.757 67.1219C158.814 67.2405 158.847 67.369 158.853 67.4999C158.86 67.6308 158.839 67.7617 158.793 67.8849L157.398 71.6401C157.305 71.8889 157.114 72.0917 156.867 72.2042C156.621 72.3166 156.338 72.3296 156.082 72.2401V72.2401Z" fill="#CCCCCC"/>
<path d="M149.946 100.849L152.746 100.849L154.078 90.361L149.945 90.3613L149.946 100.849Z" fill="#FFB8B8"/>
<path d="M158.146 103.374L149.346 103.374L149.345 100.072L154.746 100.072C155.648 100.072 156.512 100.42 157.15 101.039C157.788 101.658 158.146 102.498 158.146 103.374L158.146 103.374Z" fill="#2F2E41"/>
<path d="M143.025 97.3367L145.316 98.9007L152.618 91.0653L149.237 88.7573L143.025 97.3367Z" fill="#FFB8B8"/>
<path d="M147.962 103.446L140.762 98.5305L142.718 95.8295L147.136 98.8457C147.874 99.3493 148.375 100.117 148.53 100.98C148.685 101.842 148.48 102.729 147.962 103.446L147.962 103.446Z" fill="#2F2E41"/>
<path d="M156.073 81.9564C156.073 81.9564 163.061 81.1558 161.807 85.5591C160.552 89.9624 146.576 93.7652 146.576 93.7652L156.073 81.9564Z" fill="#FFB8B8"/>
<path d="M151.263 59.4885C154.361 59.4885 156.873 57.0497 156.873 54.0411C156.873 51.0326 154.361 48.5937 151.263 48.5937C148.165 48.5937 145.653 51.0326 145.653 54.0411C145.653 57.0497 148.165 59.4885 151.263 59.4885Z" fill="#FFB8B8"/>
<path d="M133.373 92.8635C130.181 89.2542 129.064 83.7149 134.154 79.1078C135.411 77.9979 136.835 77.0799 138.376 76.3852L142.479 65.2437C142.905 64.0802 143.686 63.0706 144.719 62.3496C145.751 61.6285 146.985 61.2302 148.257 61.2079C149.491 61.1562 150.712 61.4768 151.751 62.1258C152.791 62.7749 153.598 63.7204 154.061 64.8326C154.562 65.9641 154.62 67.2345 154.222 68.4042C153.001 72.0975 151.397 75.661 149.435 79.04L149.647 80.688L160.018 81.583L159.921 81.7357C159.87 81.8154 154.795 89.3244 148.302 94.3086C146.082 96.0128 143.786 96.7191 141.62 96.7189C138.334 96.7187 135.346 95.0944 133.373 92.8635Z" fill="#CCCCCC"/>
<path d="M132.394 55.7501C133.387 54.6017 133.812 53.0996 134.155 51.6378C134.697 49.3248 135.116 46.933 136.32 44.8689C137.523 42.8049 139.736 41.0946 142.175 41.2247C144.6 41.3542 146.561 43.2489 147.601 45.4047C147.854 45.3096 148.123 45.267 148.393 45.2797C148.663 45.2923 148.928 45.3599 149.169 45.4781C149.919 45.8769 150.2 47.0107 149.575 47.5783C150.232 47.2746 150.947 47.1086 151.674 47.091C152.401 47.0734 153.124 47.2046 153.796 47.4761C154.659 47.833 155.405 48.4143 155.95 49.156C156.495 49.8977 156.819 50.7711 156.886 51.68C156.912 52.0489 156.86 52.4191 156.733 52.7676C156.605 53.1162 156.406 53.4356 156.146 53.7062C155.07 54.7822 153.548 54.411 152.194 54.1369C150.916 53.878 149.358 53.8081 148.638 54.991C148.354 55.4839 148.275 56.0634 148.416 56.6113C148.692 57.7921 149.592 58.6146 150.466 59.4018L150.609 59.6595C147.525 60.2435 144.157 58.1982 143.348 55.25C142.539 52.3018 144.412 48.9005 147.386 47.917C147.188 47.923 146.992 47.8775 146.819 47.7854C146.645 47.6932 146.499 47.5576 146.398 47.3926C146.296 47.2277 146.241 47.0393 146.24 46.847C146.238 46.6547 146.289 46.4654 146.388 46.2987C145.564 45.8508 144.633 45.6251 143.689 45.6449C142.153 45.7428 140.823 46.8048 140.024 48.0825C139.224 49.3602 138.862 50.8432 138.495 52.2953C138.128 53.7473 137.732 55.2272 136.877 56.4706C136.284 57.3319 135.493 58.0468 134.566 58.5583C133.639 59.0699 132.601 59.3639 131.536 59.417C130.471 59.47 129.408 59.2806 128.432 58.8639C127.456 58.4471 126.593 57.8146 125.913 57.0167C126.988 57.5225 128.203 57.6726 129.374 57.4438C130.544 57.2151 131.605 56.6201 132.394 55.7501Z" fill="#2F2E41"/>
<path d="M173.597 70.5956C178.101 70.5956 181.752 67.0505 181.752 62.6774C181.752 58.3043 178.101 54.7592 173.597 54.7592C169.094 54.7592 165.443 58.3043 165.443 62.6774C165.443 67.0505 169.094 70.5956 173.597 70.5956Z" fill="#03C1CF"/>
<path d="M173.346 67.1305C173.313 67.0986 173.287 67.0606 173.269 67.0189C173.252 66.9771 173.243 66.9323 173.243 66.8871V58.1234C173.243 58.0321 173.28 57.9445 173.346 57.88C173.413 57.8154 173.503 57.7792 173.597 57.7792C173.691 57.7792 173.781 57.8154 173.848 57.88C173.914 57.9445 173.952 58.0321 173.952 58.1234V66.8871C173.952 66.9552 173.931 67.0217 173.892 67.0783C173.853 67.1349 173.798 67.1791 173.733 67.2051C173.668 67.2312 173.597 67.238 173.528 67.2247C173.459 67.2114 173.396 67.1787 173.346 67.1305H173.346Z" fill="white"/>
<path d="M168.834 62.7487C168.784 62.7005 168.751 62.6392 168.737 62.5724C168.723 62.5057 168.73 62.4364 168.757 62.3735C168.784 62.3106 168.829 62.2569 168.888 62.2191C168.946 62.1812 169.014 62.161 169.085 62.161H178.11C178.204 62.161 178.294 62.1973 178.36 62.2619C178.427 62.3264 178.464 62.414 178.464 62.5053C178.464 62.5966 178.427 62.6841 178.36 62.7487C178.294 62.8132 178.204 62.8495 178.11 62.8495H169.085C169.038 62.8496 168.992 62.8407 168.949 62.8234C168.906 62.8061 168.867 62.7807 168.834 62.7487Z" fill="white"/>
<path d="M168 67.9736C167.941 68.082 167.89 68.1948 167.849 68.3109L156.9 71.1303L154.956 69.2389L151.633 71.7146L155.61 76.4162L168.72 70.9751C169.117 71.2492 169.59 71.3995 170.076 71.4061C170.563 71.4127 171.041 71.2752 171.445 71.012C171.849 70.7487 172.161 70.3722 172.34 69.9325C172.519 69.4927 172.555 69.0106 172.445 68.5503C172.334 68.0899 172.082 67.6731 171.722 67.3553C171.361 67.0374 170.91 66.8337 170.427 66.7711C169.945 66.7085 169.454 66.79 169.02 67.0048C168.587 67.2196 168.231 67.5575 168 67.9736L168 67.9736Z" fill="#FFB8B8"/>
<path d="M152.269 73.9186L145.97 67.8023C145.683 67.5244 145.455 67.1943 145.3 66.8309C145.144 66.4674 145.064 66.0777 145.063 65.6841C145.063 65.2904 145.143 64.9006 145.298 64.5369C145.453 64.1731 145.68 63.8426 145.967 63.5643C146.253 63.286 146.594 63.0653 146.968 62.9148C147.343 62.7643 147.744 62.687 148.15 62.6873C148.555 62.6877 148.956 62.7656 149.331 62.9167C149.705 63.0678 150.045 63.2891 150.331 63.5679L156.63 69.6843C156.725 69.7769 156.801 69.887 156.853 70.008C156.904 70.1291 156.931 70.2589 156.931 70.3899C156.931 70.521 156.904 70.6508 156.853 70.7718C156.801 70.8929 156.725 71.0029 156.63 71.0956L153.723 73.9187C153.53 74.1055 153.268 74.2104 152.996 74.2104C152.723 74.2104 152.462 74.1055 152.269 73.9187V73.9186Z" fill="#CCCCCC"/>
</g>
<circle cx="236.476" cy="268.214" r="4.28723" fill="#CBCBCB"/>
<circle cx="220.552" cy="268.214" r="4.28723" fill="#CBCBCB"/>
<circle cx="204.628" cy="268.214" r="4.28723" fill="#CBCBCB"/>
<circle cx="188.704" cy="268.214" r="4.28723" fill="#03C1CF"/>
<defs>
<clipPath id="clip0">
<rect width="272.878" height="191.578" fill="white" transform="translate(75.7487 41.2178)"/>
</clipPath>
</defs>
</svg>
