<svg width="78" height="26" viewBox="0 0 78 26" fill="none" xmlns="http://www.w3.org/2000/svg">
<path d="M40.9882 18.4157H28.0566C28.2433 19.556 28.7398 20.4653 29.5458 21.1436C30.3618 21.8121 31.3988 22.1463 32.6571 22.1463C34.1611 22.1463 35.4538 21.6204 36.5351 20.5685L39.9265 22.161C39.0811 23.3603 38.0686 24.25 36.889 24.8299C35.7094 25.4001 34.3086 25.6852 32.6866 25.6852C30.1701 25.6852 28.1205 24.8938 26.5378 23.3112C24.9551 21.7187 24.1638 19.7281 24.1638 17.3393C24.1638 14.8916 24.9502 12.8617 26.5231 11.2495C28.1057 9.62752 30.0865 8.81653 32.4654 8.81653C34.9918 8.81653 37.0463 9.62752 38.629 11.2495C40.2116 12.8617 41.003 14.9948 41.003 17.649L40.9882 18.4157ZM36.948 15.2455C36.6826 14.3509 36.1567 13.6235 35.3702 13.0632C34.5937 12.5029 33.6893 12.2227 32.6571 12.2227C31.5365 12.2227 30.5534 12.5373 29.708 13.1664C29.1772 13.5596 28.6857 14.2526 28.2335 15.2455H36.948Z" fill="white"/>
<path d="M42.5365 9.2294H46.6357L50.6906 18.6959L54.7308 9.2294H58.8153L51.9882 25.2723H49.3783L42.5365 9.2294Z" fill="white"/>
<path d="M68.7241 8.81653C70.238 8.81653 71.6585 9.19499 72.9855 9.95192C74.3224 10.7088 75.3644 11.7361 76.1115 13.0337C76.8586 14.3313 77.2322 15.7321 77.2322 17.2361C77.2322 18.75 76.8537 20.1655 76.0968 21.4827C75.3497 22.8 74.3274 23.8322 73.0298 24.5793C71.7322 25.3165 70.3019 25.6852 68.7389 25.6852C66.4386 25.6852 64.4726 24.8693 62.8408 23.2374C61.2188 21.5958 60.4078 19.6052 60.4078 17.2656C60.4078 14.7589 61.3269 12.67 63.1652 10.9988C64.7773 9.54396 66.6303 8.81653 68.7241 8.81653ZM68.7831 12.6061C67.5347 12.6061 66.4927 13.0435 65.6571 13.9184C64.8314 14.7835 64.4185 15.8943 64.4185 17.2508C64.4185 18.6467 64.8265 19.7772 65.6424 20.6423C66.4681 21.5073 67.5101 21.9399 68.7684 21.9399C70.0266 21.9399 71.0736 21.5024 71.9091 20.6275C72.7447 19.7526 73.1625 18.6271 73.1625 17.2508C73.1625 15.8746 72.7496 14.7589 71.9239 13.9037C71.108 13.0386 70.061 12.6061 68.7831 12.6061Z" fill="white"/>
<path d="M6.43655 20.4061V4.72601H1.69203V20.4061H6.43655Z" fill="url(#paint0_linear)"/>
<path d="M7.34325 0.106995H1.69203V4.72606H8.06177C11.0385 4.72606 13.1998 5.38755 14.5456 6.71054C16.0396 8.1818 16.7867 10.2518 16.7867 12.9206C16.7867 14.6542 16.473 15.9354 15.8457 17.1215C15.2185 18.3076 14.4087 19.1516 13.4165 19.6534C12.4356 20.1552 10.8503 20.4062 8.66054 20.4062H1.69203V25.2723H7.42879C10.6906 25.2723 12.9831 25.067 14.3061 24.6564C15.629 24.2459 16.8551 23.5045 17.9842 22.4325C19.1247 21.3604 20.0143 20.0146 20.653 18.3951C21.3031 16.7641 21.6281 14.9792 21.6281 13.0404C21.6281 10.3145 21.0522 7.93088 19.9002 5.88937C18.7483 3.84786 17.2828 2.37661 15.5036 1.47561C13.7244 0.563198 11.0043 0.106995 7.34325 0.106995Z" fill="white"/>
<path d="M1.69203 0.106995V4.72606C0.885775 4.72606 0.232178 4.07246 0.232178 3.2662V1.56685C0.232178 0.760592 0.885775 0.106995 1.69203 0.106995Z" fill="white"/>
<defs>
<linearGradient id="paint0_linear" x1="4.06429" y1="4.72601" x2="4.06429" y2="20.4061" gradientUnits="userSpaceOnUse">
<stop stop-color="white" stop-opacity="0"/>
<stop offset="0.921875" stop-color="white"/>
</linearGradient>
</defs>
</svg>
